<?xml version="1.0" encoding="iso-8859-1"?>
<!-- Uploaded to: SVG Repo, www.svgrepo.com, Generator: SVG Repo Mixer Tools -->
<!DOCTYPE svg PUBLIC "-//W3C//DTD SVG 1.1//EN" "http://www.w3.org/Graphics/SVG/1.1/DTD/svg11.dtd">
<svg fill="#000000" version="1.1" id="Capa_1" xmlns="http://www.w3.org/2000/svg" xmlns:xlink="http://www.w3.org/1999/xlink" 
	 width="800px" height="800px" viewBox="0 0 610.398 610.398"
	 xml:space="preserve">
<g>
	<g>
		<path d="M169.491,105.188c13.339,0,24.15-12.842,24.15-28.688V40.798V28.688C193.641,12.842,182.83,0,169.491,0h-17.442
			c-13.339,0-24.15,12.842-24.15,28.688v12.111V76.5c0,15.845,10.811,28.688,24.15,28.688H169.491z"/>
		<path d="M450.389,105.188c13.34,0,24.15-12.842,24.15-28.688V40.798V28.688C474.539,12.842,463.729,0,450.389,0h-17.441
			c-13.34,0-24.15,12.842-24.15,28.688v12.111V76.5c0,15.845,10.811,28.688,24.15,28.688H450.389z"/>
		<path d="M222.328,52.594V76.5c0,31.638-23.701,57.375-52.837,57.375h-17.442c-29.137,0-52.837-25.737-52.837-57.375V52.594H84.15
			c-40.836,0-73.952,33.11-73.952,73.952v411.507C10.198,578.89,43.313,612,84.15,612h443.7c40.837,0,73.952-33.11,73.952-73.951
			V126.545c0-40.841-33.11-73.952-73.952-73.952h-24.623V76.5c0,31.638-23.7,57.375-52.838,57.375h-17.441
			c-29.138,0-52.838-25.737-52.838-57.375V52.594H222.328z M567.057,196.031v335.644c0,20.579-16.716,37.294-37.294,37.294H82.237
			c-20.559,0-37.293-16.715-37.293-37.294V196.031H567.057z"/>
		
		<path d="M353,300h117.428c10.193,0,18.437-10.179,18.437-22.759s-8.248-22.759-18.437-22.759h-117.428c-10.193,0-18.437,10.179-18.437,22.759c0,12.58,8.243,22.759,18.437,22.759z"/>
		<path d="M353,400h117.428c10.193,0,18.437-10.179,18.437-22.759s-8.248-22.759-18.437-22.759h-117.428c-10.193,0-18.437,10.179-18.437,22.759c0,12.58,8.243,22.759,18.437,22.759z"/>
		<path d="M353,500h117.428c10.193,0,18.437-10.179,18.437-22.759s-8.248-22.759-18.437-22.759h-117.428c-10.193,0-18.437,10.179-18.437,22.759c0,12.58,8.243,22.759,18.437,22.759z"/>

		<path d="M145,300h117.428c10.193,0,18.437-10.179,18.437-22.759s-8.248-22.759-18.437-22.759h-117.428c-10.193,0-18.437,10.179-18.437,22.759c0,12.58,8.243,22.759,18.437,22.759z"/>
		<path d="M145,400h117.428c10.193,0,18.437-10.179,18.437-22.759s-8.248-22.759-18.437-22.759h-117.428c-10.193,0-18.437,10.179-18.437,22.759c0,12.58,8.243,22.759,18.437,22.759z"/>
		<path d="M145,500h117.428c10.193,0,18.437-10.179,18.437-22.759s-8.248-22.759-18.437-22.759h-117.428c-10.193,0-18.437,10.179-18.437,22.759c0,12.58,8.243,22.759,18.437,22.759z"/>
		
	</g>
</g>
</svg>